<svg width="1313" height="507" viewBox="0 0 1313 507" fill="none" xmlns="http://www.w3.org/2000/svg">
<g clip-path="url(#clip0_1577_3351)">
<rect width="1313" height="507" fill="white"/>
<path d="M393.284 130.802V260.925L486.973 206.707V76.585L524.708 54.898V358.516L486.973 380.203V250.081L393.284 304.299V434.421L355.549 456.108V152.489L393.284 130.802ZM486.973 250.081V380.203L449.237 358.516V228.394L486.973 250.081ZM524.708 54.898L486.973 76.585L449.237 54.898L486.973 33.21L524.708 54.898ZM486.973 76.585V206.707L449.237 185.02V54.898L486.973 76.585ZM486.973 206.707L393.284 260.925L355.549 239.238L449.237 185.02L486.973 206.707ZM393.284 130.802L355.549 152.489L317.814 130.802L355.549 109.115L393.284 130.802ZM355.549 152.489V456.108L317.814 434.421V130.802L355.549 152.489Z" fill="#C0CCFF"/>
<path d="M731.169 397.553L637.481 451.771C627.36 457.554 618.541 458.277 611.023 453.939C603.504 449.602 599.745 441.65 599.745 430.084V152.489L637.481 130.802V408.397L731.169 354.179V76.585L768.904 54.898V332.492C768.904 340.01 767.097 348.107 763.483 356.781C759.868 365.456 755.241 373.48 749.603 380.854C743.964 388.228 737.82 393.794 731.169 397.553ZM768.904 54.898L731.169 76.585L693.433 54.898L731.169 33.21L768.904 54.898ZM731.169 76.585V354.179L693.433 332.492V54.898L731.169 76.585ZM731.169 354.179L637.481 408.397L599.745 386.71L693.433 332.492L731.169 354.179ZM637.481 130.802L599.745 152.489L562.01 130.802L599.745 109.115L637.481 130.802ZM599.745 152.489V430.084C599.745 441.65 603.504 449.602 611.023 453.939L573.287 432.252C565.769 427.915 562.01 419.963 562.01 408.397V130.802L599.745 152.489Z" fill="#C0CCFF"/>
<path d="M881.677 113.453L1031.75 26.704C1041.58 20.921 1050.33 20.198 1057.99 24.536C1065.66 28.873 1069.49 36.825 1069.49 48.391V325.986L1031.75 347.673V70.078L975.365 102.609V380.203L937.63 401.89V124.296L881.677 156.827V434.421L843.942 456.108V178.514C843.942 170.706 845.677 162.538 849.146 154.007C852.616 145.477 857.243 137.525 863.026 130.152C868.809 122.778 875.026 117.212 881.677 113.453ZM1031.75 70.078V347.673L994.016 325.986V48.391L1031.75 70.078ZM937.63 124.296V401.89L900.328 380.203V102.609L937.63 124.296ZM1057.78 24.536C1050.26 20.198 1041.58 20.921 1031.75 26.704L881.677 113.453C875.026 117.212 868.809 122.778 863.026 130.152C857.243 137.525 852.616 145.477 849.146 154.007C845.677 162.538 843.942 170.706 843.942 178.514V456.108L806.206 434.421V156.827C806.206 149.019 807.941 140.851 811.411 132.32C814.881 123.79 819.507 115.838 825.291 108.465C831.074 101.091 837.291 95.525 843.942 91.766L994.016 5.01697C1004.14 -0.766027 1012.96 -1.48903 1020.47 2.84897L1057.78 24.536Z" fill="#C0CCFF"/>
<path d="M1182.26 408.397L1275.95 354.179V397.553L1182.26 451.771C1172.14 457.554 1163.32 458.277 1155.8 453.939C1148.28 449.602 1144.52 441.65 1144.52 430.084V87.428L1182.26 65.741V408.397ZM1182.26 65.741L1144.52 87.428L1106.79 65.741L1144.52 44.054L1182.26 65.741ZM1275.95 354.179L1182.26 408.397L1144.52 386.71L1238.21 332.492L1275.95 354.179ZM1144.52 87.428V430.084C1144.52 441.65 1148.28 449.602 1155.8 453.939L1118.07 432.252C1110.55 427.915 1106.79 419.963 1106.79 408.397V65.741L1144.52 87.428Z" fill="#C0CCFF"/>
<path fill-rule="evenodd" clip-rule="evenodd" d="M355.549 456.108L393.284 434.421L392.977 303.87L486.774 249.789L487.075 380.459L525.041 358.508L525.128 54.869L487.102 76.398L487.123 205.862L393.4 260.329L393.37 130.915L355.71 152.662L355.549 456.108Z" fill="#001B94"/>
<path fill-rule="evenodd" clip-rule="evenodd" d="M637.286 130.979L599.5 152.595L600.251 425.707C600.251 431.538 600.175 437.353 601.185 440.378C606.634 456.705 622.396 463.673 645.866 446.657L738.771 392.909C738.771 392.909 746.607 387.479 755.907 372.427C760.16 365.543 765.826 353.004 767.484 345.874C769.738 336.182 769.283 329.091 769.283 329.091L769.122 54.765L731.251 76.776L730.714 354.54L637.281 408.701L637.286 130.979Z" fill="#001B94"/>
<path fill-rule="evenodd" clip-rule="evenodd" d="M844.064 456.075L882.002 434.309V156.97L938.095 123.801L937.641 401.876L975.352 380.328L976.644 102.252L1032.22 69.875L1031.83 347.747L1069.45 325.992L1069.43 46.427C1069.43 46.427 1069.3 11.227 1032.4 26.777L877.894 115.519C877.894 115.519 847.745 138.18 844.783 172.956" fill="#001B94"/>
<path fill-rule="evenodd" clip-rule="evenodd" d="M1144.93 87.287L1182.36 65.151V407.847L1275.91 354.193L1275.95 397.69L1185.47 450.048C1177.41 456.576 1146.26 467.062 1144.38 430.065L1145.02 92.446L1144.93 87.287Z" fill="#001B94"/>
<path fill-rule="evenodd" clip-rule="evenodd" d="M318.072 130.883L355.65 108.945L393.267 131.026L355.851 152.597L318.072 130.883Z" fill="#EAEEFF"/>
<path fill-rule="evenodd" clip-rule="evenodd" d="M449.244 55.1501L486.987 33.274L525.132 54.8961L487.213 76.308L449.244 55.1501Z" fill="#EAEEFF"/>
<path fill-rule="evenodd" clip-rule="evenodd" d="M561.92 131.138L599.499 109.199L637.075 130.957L599.332 152.517L561.92 131.138Z" fill="#EAEEFF"/>
<path fill-rule="evenodd" clip-rule="evenodd" d="M693.305 55.318L730.884 33.38L768.459 55.138L730.716 76.697L693.305 55.318Z" fill="#EAEEFF"/>
<path fill-rule="evenodd" clip-rule="evenodd" d="M1106.8 65.737L1144.83 43.83L1182.34 65.191L1144.77 87.205L1106.8 65.737Z" fill="#EAEEFF"/>
<path fill-rule="evenodd" clip-rule="evenodd" d="M847.855 157.449C855.501 135.465 872.659 120.008 872.659 120.008L1031.16 27.461C1031.16 27.461 1046.11 20.364 1057.33 24.21L1020.55 3.15895C1020.55 3.15895 1010.08 -3.97405 996.211 3.89995C983.672 11.021 845.273 91.716 845.273 91.716C845.273 91.716 822.242 101.672 810.149 136.479" fill="#EAEEFF"/>
<path fill-rule="evenodd" clip-rule="evenodd" d="M208.55 144.07L169.78 121.82C169.78 121.82 152.93 105.72 172.34 71.35C184.68 49.49 206.06 43.41 213.2 46.94L252.87 69.46C252.87 69.46 208.05 143.97 208.55 144.07Z" fill="#C0CCFF"/>
<path d="M208.816 144.086C220.499 151.148 239.998 140.284 252.369 119.819C264.74 99.3547 265.297 77.0398 253.614 69.9773C241.931 62.9149 222.431 73.7794 210.061 94.2439C197.69 114.708 197.132 137.024 208.816 144.086Z" fill="#001B94"/>
<path d="M213 46.9999L251.5 68.9999C240.3 65.7999 229.667 72.3793 225.5 76L188 54C197 46 209.833 45.3333 213 46.9999Z" fill="#EAEEFF"/>
<g clip-path="url(#clip1_1577_3351)">
<path fill-rule="evenodd" clip-rule="evenodd" d="M76.55 241.07L37.78 218.82C37.78 218.82 20.9299 202.72 40.3399 168.35C52.6799 146.49 74.0599 140.41 81.1999 143.94L120.87 166.46C120.87 166.46 76.05 240.97 76.55 241.07Z" fill="#C0CCFF"/>
<path d="M76.8156 241.086C88.4987 248.148 107.998 237.284 120.369 216.819C132.74 196.355 133.297 174.04 121.614 166.977C109.931 159.915 90.4315 170.779 78.0607 191.244C65.69 211.708 65.1325 234.024 76.8156 241.086Z" fill="#001B94"/>
<path d="M81 143.742L119.5 165.742C108.3 162.542 97.6667 169.121 93.5 172.742L56 150.742C65 142.742 77.8333 142.075 81 143.742Z" fill="#EAEEFF"/>
</g>
<g clip-path="url(#clip2_1577_3351)">
<path fill-rule="evenodd" clip-rule="evenodd" d="M208.55 348.07L169.78 325.82C169.78 325.82 152.93 309.72 172.34 275.35C184.68 253.49 206.06 247.41 213.2 250.94L252.87 273.46C252.87 273.46 208.05 347.97 208.55 348.07Z" fill="#C0CCFF"/>
<path d="M208.816 348.086C220.499 355.148 239.998 344.284 252.369 323.819C264.74 303.355 265.297 281.04 253.614 273.977C241.931 266.915 222.431 277.779 210.061 298.244C197.69 318.708 197.132 341.024 208.816 348.086Z" fill="#001B94"/>
<path d="M213 250.742L251.5 272.742C240.3 269.542 229.667 276.121 225.5 279.742L188 257.742C197 249.742 209.833 249.075 213 250.742Z" fill="#EAEEFF"/>
</g>
<g clip-path="url(#clip3_1577_3351)">
<path fill-rule="evenodd" clip-rule="evenodd" d="M76.55 445.07L37.78 422.82C37.78 422.82 20.9299 406.72 40.3399 372.35C52.6799 350.49 74.0599 344.41 81.1999 347.94L120.87 370.46C120.87 370.46 76.05 444.97 76.55 445.07Z" fill="#C0CCFF"/>
<path d="M76.8156 445.086C88.4987 452.148 107.998 441.284 120.369 420.819C132.74 400.355 133.297 378.04 121.614 370.977C109.931 363.915 90.4315 374.779 78.0607 395.244C65.69 415.708 65.1325 438.024 76.8156 445.086Z" fill="#001B94"/>
<path d="M81 347.742L119.5 369.742C108.3 366.542 97.6667 373.121 93.5 376.742L56 354.742C65 346.742 77.8333 346.075 81 347.742Z" fill="#EAEEFF"/>
</g>
</g>
<defs>
<clipPath id="clip0_1577_3351">
<rect width="1313" height="507" fill="white"/>
</clipPath>
<clipPath id="clip1_1577_3351">
<rect width="112" height="111" fill="white" transform="translate(31 143)"/>
</clipPath>
<clipPath id="clip2_1577_3351">
<rect width="112" height="111" fill="white" transform="translate(163 250)"/>
</clipPath>
<clipPath id="clip3_1577_3351">
<rect width="112" height="111" fill="white" transform="translate(31 347)"/>
</clipPath>
</defs>
</svg>
