<svg xmlns="http://www.w3.org/2000/svg" width="364.906" height="82.999" fill="none" xmlns:v="https://vecta.io/nano"><path d="M113.562 70V6h13.532v26.406h27.468V6h13.501v64h-13.501V43.563h-27.468V70zM218.75 6h13.531v41.563c0 4.667-1.114 8.75-3.343 12.25-2.209 3.5-5.303 6.229-9.282 8.188-3.979 1.938-8.614 2.906-13.906 2.906-5.312 0-9.958-.969-13.937-2.906-3.98-1.958-7.073-4.687-9.282-8.187s-3.312-7.583-3.312-12.25V6h13.531v40.406c0 2.438.531 4.604 1.594 6.5 1.083 1.896 2.604 3.386 4.562 4.469S203.146 59 205.75 59c2.625 0 4.906-.542 6.844-1.625 1.958-1.083 3.469-2.573 4.531-4.469 1.083-1.896 1.625-4.062 1.625-6.5zm24.664 0h16.688l17.625 43h.75l17.625-43h16.687v64h-13.125V28.344h-.531L282.57 69.688h-8.937l-16.563-41.5h-.531V70h-13.125zm80.523 64V6h13.532v52.844h27.437V70z" fill="#000"/><g clip-path="url(#A)" transform="translate(-12 -16)"><path d="M90.589 16a9.35 9.35 0 0 1 9.35 9.478l-.739 51.655a9.34 9.34 0 0 1-2.639 6.373L84.272 96.163C82.512 97.976 80.09 99 77.562 99H21.35a9.35 9.35 0 0 1-9.349-9.478l.739-51.655a9.34 9.34 0 0 1 2.639-6.374l12.288-12.656C29.428 17.023 31.849 16 34.377 16z" fill="#057d5f"/><g fill="#00946f"><path d="M80.67 16a9.35 9.35 0 0 1 9.349 9.479l-.687 47.724-12.891 13.2c-1.759 1.801-4.172 2.817-6.691 2.817H21.368a9.35 9.35 0 0 1-9.349-9.478l.633-43.998a9.34 9.34 0 0 1 2.658-6.393l10.287-10.533C27.356 17.016 29.769 16 32.287 16z"/><use href="#B"/><path d="M65.741 39.735c4.706.149 8.641-3.543 8.79-8.246s-3.546-8.636-8.251-8.785-8.641 3.543-8.79 8.247 3.545 8.636 8.251 8.785z"/><use href="#C"/><use href="#D"/></g><path d="M36.574 48.316c4.706.149 8.641-3.543 8.79-8.246s-3.546-8.636-8.251-8.785-8.641 3.543-8.79 8.246 3.546 8.636 8.251 8.785z" fill="#057d5f"/><use href="#E" fill="#fff"/><path d="M72.953 47.226a8.52 8.52 0 0 0 1.391-11.968 8.53 8.53 0 0 0-11.976-1.39 8.52 8.52 0 0 0-1.391 11.968 8.53 8.53 0 0 0 11.976 1.39z" fill="#057d5f"/><path d="M71.282 46.445c3.334-2.639 3.896-7.478 1.256-10.81s-7.483-3.894-10.817-1.255-3.896 7.478-1.256 10.81 7.483 3.894 10.817 1.256z" fill="#fff"/><path d="M66.54 75.982c4.706.149 8.641-3.543 8.79-8.246s-3.546-8.636-8.251-8.785-8.641 3.543-8.79 8.246 3.545 8.636 8.251 8.785z" fill="#057d5f"/><path d="M65.767 74.308a7.7 7.7 0 0 0 7.939-7.448 7.7 7.7 0 1 0-15.392-.486 7.7 7.7 0 0 0 7.453 7.935z" fill="#fff"/><path d="M35.705 75.786c4.706.149 8.641-3.543 8.79-8.246s-3.545-8.636-8.251-8.785-8.641 3.543-8.79 8.246 3.546 8.636 8.251 8.785z" fill="#057d5f"/><path d="M34.932 74.112a7.7 7.7 0 0 0 7.939-7.448 7.7 7.7 0 0 0-15.392-.486 7.7 7.7 0 0 0 7.453 7.935z" fill="#fff"/><path d="M80.62 97.95c-2.475.825-7.551-9.118-7.551-9.118 3.361-1.913 10.17-8.217 16.225-15.391 2.475 1.741 7.512 4.474 8.612 6.123 2.619.525-14.667 18.386-17.286 18.386z" fill="#0ca680" stroke="#0ca680"/></g><defs><clipPath id="A"><path fill="#fff" transform="translate(12 16)" d="M0 0h88v83H0z"/></clipPath><path id="B" d="M35.708 49.785c4.706.149 8.641-3.543 8.79-8.246s-3.545-8.636-8.251-8.785-8.641 3.543-8.79 8.246 3.546 8.636 8.251 8.785z"/><path id="C" d="M34.84 77.255c4.706.149 8.641-3.543 8.79-8.246s-3.546-8.636-8.251-8.785-8.641 3.543-8.79 8.246 3.546 8.636 8.251 8.785z"/><path id="D" d="M64.889 66.655c4.706.149 8.641-3.543 8.79-8.246s-3.546-8.636-8.251-8.785-8.641 3.543-8.79 8.246 3.545 8.636 8.251 8.785z"/><path id="E" d="M35.801 46.642a7.7 7.7 0 0 0 7.939-7.448 7.7 7.7 0 0 0-15.392-.486 7.7 7.7 0 0 0 7.453 7.935z"/></defs></svg>